<svg width="250" height="150" viewBox="0 0 250 150" fill="none" xmlns="http://www.w3.org/2000/svg">
<rect width="250" height="150" rx="20" fill="url(#paint0_linear_501_182)"/>
<path d="M47.1373 31.228V37.276C47.1373 37.9387 47.31 38.4473 47.6553 38.802C48.0006 39.1473 48.486 39.32 49.1113 39.32C49.746 39.32 50.236 39.1473 50.5813 38.802C50.9266 38.4473 51.0993 37.9387 51.0993 37.276V31.228H53.0733V37.262C53.0733 38.0927 52.8913 38.7973 52.5273 39.376C52.1726 39.9453 51.692 40.3747 51.0853 40.664C50.488 40.9533 49.8206 41.098 49.0833 41.098C48.3553 41.098 47.6926 40.9533 47.0953 40.664C46.5073 40.3747 46.0406 39.9453 45.6953 39.376C45.35 38.7973 45.1773 38.0927 45.1773 37.262V31.228H47.1373ZM57.067 34.364C57.319 34.0093 57.6643 33.7153 58.103 33.482C58.551 33.2393 59.0597 33.118 59.629 33.118C60.2917 33.118 60.889 33.2813 61.421 33.608C61.9623 33.9347 62.387 34.4013 62.695 35.008C63.0123 35.6053 63.171 36.3007 63.171 37.094C63.171 37.8873 63.0123 38.592 62.695 39.208C62.387 39.8147 61.9623 40.286 61.421 40.622C60.889 40.958 60.2917 41.126 59.629 41.126C59.0597 41.126 58.5557 41.0093 58.117 40.776C57.6877 40.5427 57.3377 40.2487 57.067 39.894V44.696H55.107V33.244H57.067V34.364ZM61.169 37.094C61.169 36.6273 61.071 36.226 60.875 35.89C60.6883 35.5447 60.4363 35.2833 60.119 35.106C59.811 34.9287 59.475 34.84 59.111 34.84C58.7563 34.84 58.4203 34.9333 58.103 35.12C57.795 35.2973 57.543 35.5587 57.347 35.904C57.1603 36.2493 57.067 36.6553 57.067 37.122C57.067 37.5887 57.1603 37.9947 57.347 38.34C57.543 38.6853 57.795 38.9513 58.103 39.138C58.4203 39.3153 58.7563 39.404 59.111 39.404C59.475 39.404 59.811 39.3107 60.119 39.124C60.4363 38.9373 60.6883 38.6713 60.875 38.326C61.071 37.9807 61.169 37.57 61.169 37.094ZM67.7733 33.118C68.352 33.118 68.8606 33.2347 69.2993 33.468C69.738 33.692 70.0833 33.986 70.3353 34.35V33.244H72.3093V41.056C72.3093 41.7747 72.1646 42.414 71.8753 42.974C71.586 43.5433 71.152 43.9913 70.5733 44.318C69.9946 44.654 69.2946 44.822 68.4733 44.822C67.372 44.822 66.4666 44.5653 65.7573 44.052C65.0573 43.5387 64.6606 42.8387 64.5673 41.952H66.5133C66.616 42.3067 66.8353 42.5867 67.1713 42.792C67.5166 43.0067 67.932 43.114 68.4173 43.114C68.9866 43.114 69.4486 42.9413 69.8033 42.596C70.158 42.26 70.3353 41.7467 70.3353 41.056V39.852C70.0833 40.216 69.7333 40.5193 69.2853 40.762C68.8466 41.0047 68.3426 41.126 67.7733 41.126C67.12 41.126 66.5226 40.958 65.9813 40.622C65.44 40.286 65.0106 39.8147 64.6933 39.208C64.3853 38.592 64.2313 37.8873 64.2313 37.094C64.2313 36.31 64.3853 35.6147 64.6933 35.008C65.0106 34.4013 65.4353 33.9347 65.9673 33.608C66.5086 33.2813 67.1106 33.118 67.7733 33.118ZM70.3353 37.122C70.3353 36.646 70.242 36.24 70.0553 35.904C69.8686 35.5587 69.6166 35.2973 69.2993 35.12C68.982 34.9333 68.6413 34.84 68.2773 34.84C67.9133 34.84 67.5773 34.9287 67.2693 35.106C66.9613 35.2833 66.7093 35.5447 66.5133 35.89C66.3266 36.226 66.2333 36.6273 66.2333 37.094C66.2333 37.5607 66.3266 37.9713 66.5133 38.326C66.7093 38.6713 66.9613 38.9373 67.2693 39.124C67.5866 39.3107 67.9226 39.404 68.2773 39.404C68.6413 39.404 68.982 39.3153 69.2993 39.138C69.6166 38.9513 69.8686 38.69 70.0553 38.354C70.242 38.0087 70.3353 37.598 70.3353 37.122ZM76.3236 34.448C76.5756 34.0373 76.9022 33.7153 77.3036 33.482C77.7142 33.2487 78.1809 33.132 78.7036 33.132V35.19H78.1856C77.5696 35.19 77.1029 35.3347 76.7856 35.624C76.4776 35.9133 76.3236 36.4173 76.3236 37.136V41H74.3636V33.244H76.3236V34.448ZM79.6597 37.094C79.6597 36.31 79.8137 35.6147 80.1217 35.008C80.4391 34.4013 80.8637 33.9347 81.3957 33.608C81.9371 33.2813 82.5391 33.118 83.2017 33.118C83.7804 33.118 84.2844 33.2347 84.7137 33.468C85.1524 33.7013 85.5024 33.9953 85.7637 34.35V33.244H87.7377V41H85.7637V39.866C85.5117 40.23 85.1617 40.5333 84.7137 40.776C84.2751 41.0093 83.7664 41.126 83.1877 41.126C82.5344 41.126 81.9371 40.958 81.3957 40.622C80.8637 40.286 80.4391 39.8147 80.1217 39.208C79.8137 38.592 79.6597 37.8873 79.6597 37.094ZM85.7637 37.122C85.7637 36.646 85.6704 36.24 85.4837 35.904C85.2971 35.5587 85.0451 35.2973 84.7277 35.12C84.4104 34.9333 84.0697 34.84 83.7057 34.84C83.3417 34.84 83.0057 34.9287 82.6977 35.106C82.3897 35.2833 82.1377 35.5447 81.9417 35.89C81.7551 36.226 81.6617 36.6273 81.6617 37.094C81.6617 37.5607 81.7551 37.9713 81.9417 38.326C82.1377 38.6713 82.3897 38.9373 82.6977 39.124C83.0151 39.3107 83.3511 39.404 83.7057 39.404C84.0697 39.404 84.4104 39.3153 84.7277 39.138C85.0451 38.9513 85.2971 38.69 85.4837 38.354C85.6704 38.0087 85.7637 37.598 85.7637 37.122ZM89.288 37.094C89.288 36.31 89.442 35.6147 89.75 35.008C90.0673 34.4013 90.4967 33.9347 91.038 33.608C91.5793 33.2813 92.1813 33.118 92.844 33.118C93.348 33.118 93.8287 33.23 94.286 33.454C94.7433 33.6687 95.1073 33.958 95.378 34.322V30.64H97.366V41H95.378V39.852C95.1353 40.2347 94.7947 40.5427 94.356 40.776C93.9173 41.0093 93.4087 41.126 92.83 41.126C92.1767 41.126 91.5793 40.958 91.038 40.622C90.4967 40.286 90.0673 39.8147 89.75 39.208C89.442 38.592 89.288 37.8873 89.288 37.094ZM95.392 37.122C95.392 36.646 95.2987 36.24 95.112 35.904C94.9253 35.5587 94.6733 35.2973 94.356 35.12C94.0387 34.9333 93.698 34.84 93.334 34.84C92.97 34.84 92.634 34.9287 92.326 35.106C92.018 35.2833 91.766 35.5447 91.57 35.89C91.3833 36.226 91.29 36.6273 91.29 37.094C91.29 37.5607 91.3833 37.9713 91.57 38.326C91.766 38.6713 92.018 38.9373 92.326 39.124C92.6433 39.3107 92.9793 39.404 93.334 39.404C93.698 39.404 94.0387 39.3153 94.356 39.138C94.6733 38.9513 94.9253 38.69 95.112 38.354C95.2987 38.0087 95.392 37.598 95.392 37.122ZM106.63 36.954C106.63 37.234 106.612 37.486 106.574 37.71H100.904C100.951 38.27 101.147 38.7087 101.492 39.026C101.838 39.3433 102.262 39.502 102.766 39.502C103.494 39.502 104.012 39.1893 104.32 38.564H106.434C106.21 39.3107 105.781 39.9267 105.146 40.412C104.512 40.888 103.732 41.126 102.808 41.126C102.062 41.126 101.39 40.9627 100.792 40.636C100.204 40.3 99.7423 39.8287 99.4063 39.222C99.0796 38.6153 98.9163 37.9153 98.9163 37.122C98.9163 36.3193 99.0796 35.6147 99.4063 35.008C99.733 34.4013 100.19 33.9347 100.778 33.608C101.366 33.2813 102.043 33.118 102.808 33.118C103.546 33.118 104.204 33.2767 104.782 33.594C105.37 33.9113 105.823 34.364 106.14 34.952C106.467 35.5307 106.63 36.198 106.63 36.954ZM104.6 36.394C104.591 35.89 104.409 35.4887 104.054 35.19C103.7 34.882 103.266 34.728 102.752 34.728C102.267 34.728 101.856 34.8773 101.52 35.176C101.194 35.4653 100.993 35.8713 100.918 36.394H104.6ZM113.959 34.854V38.606C113.959 38.8673 114.02 39.0587 114.141 39.18C114.272 39.292 114.486 39.348 114.785 39.348H115.695V41H114.463C112.811 41 111.985 40.1973 111.985 38.592V34.854H111.061V33.244H111.985V31.326H113.959V33.244H115.695V34.854H113.959ZM120.689 41.126C119.942 41.126 119.27 40.9627 118.673 40.636C118.075 40.3 117.604 39.8287 117.259 39.222C116.923 38.6153 116.755 37.9153 116.755 37.122C116.755 36.3287 116.927 35.6287 117.273 35.022C117.627 34.4153 118.108 33.9487 118.715 33.622C119.321 33.286 119.998 33.118 120.745 33.118C121.491 33.118 122.168 33.286 122.775 33.622C123.381 33.9487 123.857 34.4153 124.203 35.022C124.557 35.6287 124.735 36.3287 124.735 37.122C124.735 37.9153 124.553 38.6153 124.189 39.222C123.834 39.8287 123.349 40.3 122.733 40.636C122.126 40.9627 121.445 41.126 120.689 41.126ZM120.689 39.418C121.043 39.418 121.375 39.334 121.683 39.166C122 38.9887 122.252 38.7273 122.439 38.382C122.625 38.0367 122.719 37.6167 122.719 37.122C122.719 36.3847 122.523 35.82 122.131 35.428C121.748 35.0267 121.277 34.826 120.717 34.826C120.157 34.826 119.685 35.0267 119.303 35.428C118.929 35.82 118.743 36.3847 118.743 37.122C118.743 37.8593 118.925 38.4287 119.289 38.83C119.662 39.222 120.129 39.418 120.689 39.418ZM140.39 34.252C140.39 34.7747 140.264 35.2647 140.012 35.722C139.77 36.1793 139.382 36.548 138.85 36.828C138.328 37.108 137.665 37.248 136.862 37.248H135.224V41H133.264V31.228H136.862C137.618 31.228 138.262 31.3587 138.794 31.62C139.326 31.8813 139.723 32.2407 139.984 32.698C140.255 33.1553 140.39 33.6733 140.39 34.252ZM136.778 35.666C137.32 35.666 137.721 35.5447 137.982 35.302C138.244 35.05 138.374 34.7 138.374 34.252C138.374 33.3 137.842 32.824 136.778 32.824H135.224V35.666H136.778ZM146.962 41L144.806 37.192H143.882V41H141.922V31.228H145.59C146.346 31.228 146.99 31.3633 147.522 31.634C148.054 31.8953 148.45 32.2547 148.712 32.712C148.982 33.16 149.118 33.664 149.118 34.224C149.118 34.868 148.931 35.4513 148.558 35.974C148.184 36.4873 147.629 36.842 146.892 37.038L149.23 41H146.962ZM143.882 35.722H145.52C146.052 35.722 146.448 35.596 146.71 35.344C146.971 35.0827 147.102 34.7233 147.102 34.266C147.102 33.818 146.971 33.4727 146.71 33.23C146.448 32.978 146.052 32.852 145.52 32.852H143.882V35.722ZM155.567 41.098C154.652 41.098 153.812 40.8833 153.047 40.454C152.281 40.0247 151.675 39.432 151.227 38.676C150.779 37.9107 150.555 37.0473 150.555 36.086C150.555 35.134 150.779 34.28 151.227 33.524C151.675 32.7587 152.281 32.1613 153.047 31.732C153.812 31.3027 154.652 31.088 155.567 31.088C156.491 31.088 157.331 31.3027 158.087 31.732C158.852 32.1613 159.454 32.7587 159.893 33.524C160.341 34.28 160.565 35.134 160.565 36.086C160.565 37.0473 160.341 37.9107 159.893 38.676C159.454 39.432 158.852 40.0247 158.087 40.454C157.321 40.8833 156.481 41.098 155.567 41.098ZM155.567 39.348C156.155 39.348 156.673 39.2173 157.121 38.956C157.569 38.6853 157.919 38.3027 158.171 37.808C158.423 37.3133 158.549 36.7393 158.549 36.086C158.549 35.4327 158.423 34.8633 158.171 34.378C157.919 33.8833 157.569 33.5053 157.121 33.244C156.673 32.9827 156.155 32.852 155.567 32.852C154.979 32.852 154.456 32.9827 153.999 33.244C153.551 33.5053 153.201 33.8833 152.949 34.378C152.697 34.8633 152.571 35.4327 152.571 36.086C152.571 36.7393 152.697 37.3133 152.949 37.808C153.201 38.3027 153.551 38.6853 153.999 38.956C154.456 39.2173 154.979 39.348 155.567 39.348ZM167.921 34.854V38.606C167.921 38.8673 167.981 39.0587 168.103 39.18C168.233 39.292 168.448 39.348 168.747 39.348H169.657V41H168.425C166.773 41 165.947 40.1973 165.947 38.592V34.854H165.023V33.244H165.947V31.326H167.921V33.244H169.657V34.854H167.921ZM174.65 41.126C173.904 41.126 173.232 40.9627 172.634 40.636C172.037 40.3 171.566 39.8287 171.22 39.222C170.884 38.6153 170.716 37.9153 170.716 37.122C170.716 36.3287 170.889 35.6287 171.234 35.022C171.589 34.4153 172.07 33.9487 172.676 33.622C173.283 33.286 173.96 33.118 174.706 33.118C175.453 33.118 176.13 33.286 176.736 33.622C177.343 33.9487 177.819 34.4153 178.164 35.022C178.519 35.6287 178.696 36.3287 178.696 37.122C178.696 37.9153 178.514 38.6153 178.15 39.222C177.796 39.8287 177.31 40.3 176.694 40.636C176.088 40.9627 175.406 41.126 174.65 41.126ZM174.65 39.418C175.005 39.418 175.336 39.334 175.644 39.166C175.962 38.9887 176.214 38.7273 176.4 38.382C176.587 38.0367 176.68 37.6167 176.68 37.122C176.68 36.3847 176.484 35.82 176.092 35.428C175.71 35.0267 175.238 34.826 174.678 34.826C174.118 34.826 173.647 35.0267 173.264 35.428C172.891 35.82 172.704 36.3847 172.704 37.122C172.704 37.8593 172.886 38.4287 173.25 38.83C173.624 39.222 174.09 39.418 174.65 39.418ZM186.788 33.118C187.367 33.118 187.875 33.2347 188.314 33.468C188.753 33.692 189.098 33.986 189.35 34.35V33.244H191.324V41.056C191.324 41.7747 191.179 42.414 190.89 42.974C190.601 43.5433 190.167 43.9913 189.588 44.318C189.009 44.654 188.309 44.822 187.488 44.822C186.387 44.822 185.481 44.5653 184.772 44.052C184.072 43.5387 183.675 42.8387 183.582 41.952H185.528C185.631 42.3067 185.85 42.5867 186.186 42.792C186.531 43.0067 186.947 43.114 187.432 43.114C188.001 43.114 188.463 42.9413 188.818 42.596C189.173 42.26 189.35 41.7467 189.35 41.056V39.852C189.098 40.216 188.748 40.5193 188.3 40.762C187.861 41.0047 187.357 41.126 186.788 41.126C186.135 41.126 185.537 40.958 184.996 40.622C184.455 40.286 184.025 39.8147 183.708 39.208C183.4 38.592 183.246 37.8873 183.246 37.094C183.246 36.31 183.4 35.6147 183.708 35.008C184.025 34.4013 184.45 33.9347 184.982 33.608C185.523 33.2813 186.125 33.118 186.788 33.118ZM189.35 37.122C189.35 36.646 189.257 36.24 189.07 35.904C188.883 35.5587 188.631 35.2973 188.314 35.12C187.997 34.9333 187.656 34.84 187.292 34.84C186.928 34.84 186.592 34.9287 186.284 35.106C185.976 35.2833 185.724 35.5447 185.528 35.89C185.341 36.226 185.248 36.6273 185.248 37.094C185.248 37.5607 185.341 37.9713 185.528 38.326C185.724 38.6713 185.976 38.9373 186.284 39.124C186.601 39.3107 186.937 39.404 187.292 39.404C187.656 39.404 187.997 39.3153 188.314 39.138C188.631 38.9513 188.883 38.69 189.07 38.354C189.257 38.0087 189.35 37.598 189.35 37.122ZM200.588 36.954C200.588 37.234 200.57 37.486 200.532 37.71H194.862C194.909 38.27 195.105 38.7087 195.45 39.026C195.796 39.3433 196.22 39.502 196.724 39.502C197.452 39.502 197.97 39.1893 198.278 38.564H200.392C200.168 39.3107 199.739 39.9267 199.104 40.412C198.47 40.888 197.69 41.126 196.766 41.126C196.02 41.126 195.348 40.9627 194.75 40.636C194.162 40.3 193.7 39.8287 193.364 39.222C193.038 38.6153 192.874 37.9153 192.874 37.122C192.874 36.3193 193.038 35.6147 193.364 35.008C193.691 34.4013 194.148 33.9347 194.736 33.608C195.324 33.2813 196.001 33.118 196.766 33.118C197.504 33.118 198.162 33.2767 198.74 33.594C199.328 33.9113 199.781 34.364 200.098 34.952C200.425 35.5307 200.588 36.198 200.588 36.954ZM198.558 36.394C198.549 35.89 198.367 35.4887 198.012 35.19C197.658 34.882 197.224 34.728 196.71 34.728C196.225 34.728 195.814 34.8773 195.478 35.176C195.152 35.4653 194.951 35.8713 194.876 36.394H198.558ZM204.441 34.854V38.606C204.441 38.8673 204.502 39.0587 204.623 39.18C204.754 39.292 204.968 39.348 205.267 39.348H206.177V41H204.945C203.293 41 202.467 40.1973 202.467 38.592V34.854H201.543V33.244H202.467V31.326H204.441V33.244H206.177V34.854H204.441ZM53.9826 58.094C53.9826 57.31 54.1366 56.6147 54.4446 56.008C54.7619 55.4013 55.1866 54.9347 55.7186 54.608C56.2599 54.2813 56.8619 54.118 57.5246 54.118C58.1033 54.118 58.6073 54.2347 59.0366 54.468C59.4753 54.7013 59.8253 54.9953 60.0866 55.35V54.244H62.0606V62H60.0866V60.866C59.8346 61.23 59.4846 61.5333 59.0366 61.776C58.5979 62.0093 58.0893 62.126 57.5106 62.126C56.8573 62.126 56.2599 61.958 55.7186 61.622C55.1866 61.286 54.7619 60.8147 54.4446 60.208C54.1366 59.592 53.9826 58.8873 53.9826 58.094ZM60.0866 58.122C60.0866 57.646 59.9933 57.24 59.8066 56.904C59.6199 56.5587 59.3679 56.2973 59.0506 56.12C58.7333 55.9333 58.3926 55.84 58.0286 55.84C57.6646 55.84 57.3286 55.9287 57.0206 56.106C56.7126 56.2833 56.4606 56.5447 56.2646 56.89C56.0779 57.226 55.9846 57.6273 55.9846 58.094C55.9846 58.5607 56.0779 58.9713 56.2646 59.326C56.4606 59.6713 56.7126 59.9373 57.0206 60.124C57.3379 60.3107 57.6739 60.404 58.0286 60.404C58.3926 60.404 58.7333 60.3153 59.0506 60.138C59.3679 59.9513 59.6199 59.69 59.8066 59.354C59.9933 59.0087 60.0866 58.598 60.0866 58.122ZM63.6109 58.122C63.6109 57.3193 63.7742 56.6193 64.1009 56.022C64.4275 55.4153 64.8802 54.9487 65.4589 54.622C66.0375 54.286 66.7002 54.118 67.4469 54.118C68.4082 54.118 69.2015 54.3607 69.8269 54.846C70.4615 55.322 70.8862 55.994 71.1009 56.862H68.9869C68.8749 56.526 68.6835 56.2647 68.4129 56.078C68.1515 55.882 67.8249 55.784 67.4329 55.784C66.8729 55.784 66.4295 55.9893 66.1029 56.4C65.7762 56.8013 65.6129 57.3753 65.6129 58.122C65.6129 58.8593 65.7762 59.4333 66.1029 59.844C66.4295 60.2453 66.8729 60.446 67.4329 60.446C68.2262 60.446 68.7442 60.0913 68.9869 59.382H71.1009C70.8862 60.222 70.4615 60.8893 69.8269 61.384C69.1922 61.8787 68.3989 62.126 67.4469 62.126C66.7002 62.126 66.0375 61.9627 65.4589 61.636C64.8802 61.3 64.4275 60.8333 64.1009 60.236C63.7742 59.6293 63.6109 58.9247 63.6109 58.122ZM72.1727 58.122C72.1727 57.3193 72.3361 56.6193 72.6627 56.022C72.9894 55.4153 73.4421 54.9487 74.0207 54.622C74.5994 54.286 75.2621 54.118 76.0087 54.118C76.9701 54.118 77.7634 54.3607 78.3887 54.846C79.0234 55.322 79.4481 55.994 79.6627 56.862H77.5487C77.4367 56.526 77.2454 56.2647 76.9747 56.078C76.7134 55.882 76.3867 55.784 75.9947 55.784C75.4347 55.784 74.9914 55.9893 74.6647 56.4C74.3381 56.8013 74.1747 57.3753 74.1747 58.122C74.1747 58.8593 74.3381 59.4333 74.6647 59.844C74.9914 60.2453 75.4347 60.446 75.9947 60.446C76.7881 60.446 77.3061 60.0913 77.5487 59.382H79.6627C79.4481 60.222 79.0234 60.8893 78.3887 61.384C77.7541 61.8787 76.9607 62.126 76.0087 62.126C75.2621 62.126 74.5994 61.9627 74.0207 61.636C73.4421 61.3 72.9894 60.8333 72.6627 60.236C72.3361 59.6293 72.1727 58.9247 72.1727 58.122ZM88.4486 57.954C88.4486 58.234 88.4299 58.486 88.3926 58.71H82.7226C82.7693 59.27 82.9653 59.7087 83.3106 60.026C83.6559 60.3433 84.0806 60.502 84.5846 60.502C85.3126 60.502 85.8306 60.1893 86.1386 59.564H88.2526C88.0286 60.3107 87.5993 60.9267 86.9646 61.412C86.3299 61.888 85.5506 62.126 84.6266 62.126C83.8799 62.126 83.2079 61.9627 82.6106 61.636C82.0226 61.3 81.5606 60.8287 81.2246 60.222C80.8979 59.6153 80.7346 58.9153 80.7346 58.122C80.7346 57.3193 80.8979 56.6147 81.2246 56.008C81.5513 55.4013 82.0086 54.9347 82.5966 54.608C83.1846 54.2813 83.8613 54.118 84.6266 54.118C85.3639 54.118 86.0219 54.2767 86.6006 54.594C87.1886 54.9113 87.6413 55.364 87.9586 55.952C88.2853 56.5307 88.4486 57.198 88.4486 57.954ZM86.4186 57.394C86.4093 56.89 86.2273 56.4887 85.8726 56.19C85.5179 55.882 85.0839 55.728 84.5706 55.728C84.0853 55.728 83.6746 55.8773 83.3386 56.176C83.0119 56.4653 82.8113 56.8713 82.7366 57.394H86.4186ZM92.9872 62.126C92.3526 62.126 91.7832 62.014 91.2792 61.79C90.7752 61.5567 90.3739 61.244 90.0752 60.852C89.7859 60.46 89.6272 60.026 89.5992 59.55H91.5732C91.6106 59.8487 91.7552 60.096 92.0072 60.292C92.2686 60.488 92.5906 60.586 92.9732 60.586C93.3466 60.586 93.6359 60.5113 93.8412 60.362C94.0559 60.2127 94.1632 60.0213 94.1632 59.788C94.1632 59.536 94.0326 59.3493 93.7712 59.228C93.5192 59.0973 93.1132 58.9573 92.5532 58.808C91.9746 58.668 91.4986 58.5233 91.1252 58.374C90.7612 58.2247 90.4439 57.996 90.1732 57.688C89.9119 57.38 89.7812 56.9647 89.7812 56.442C89.7812 56.0127 89.9026 55.6207 90.1452 55.266C90.3972 54.9113 90.7519 54.6313 91.2092 54.426C91.6759 54.2207 92.2219 54.118 92.8472 54.118C93.7712 54.118 94.5086 54.3513 95.0592 54.818C95.6099 55.2753 95.9132 55.896 95.9692 56.68H94.0932C94.0652 56.372 93.9346 56.1293 93.7012 55.952C93.4772 55.7653 93.1739 55.672 92.7912 55.672C92.4366 55.672 92.1612 55.7373 91.9652 55.868C91.7786 55.9987 91.6852 56.1807 91.6852 56.414C91.6852 56.6753 91.8159 56.876 92.0772 57.016C92.3386 57.1467 92.7446 57.282 93.2952 57.422C93.8552 57.562 94.3172 57.7067 94.6812 57.856C95.0452 58.0053 95.3579 58.2387 95.6192 58.556C95.8899 58.864 96.0299 59.2747 96.0392 59.788C96.0392 60.236 95.9132 60.6373 95.6612 60.992C95.4186 61.3467 95.0639 61.6267 94.5972 61.832C94.1399 62.028 93.6032 62.126 92.9872 62.126ZM100.756 62.126C100.121 62.126 99.5521 62.014 99.0481 61.79C98.5441 61.5567 98.1428 61.244 97.8441 60.852C97.5548 60.46 97.3961 60.026 97.3681 59.55H99.3421C99.3795 59.8487 99.5241 60.096 99.7761 60.292C100.037 60.488 100.359 60.586 100.742 60.586C101.115 60.586 101.405 60.5113 101.61 60.362C101.825 60.2127 101.932 60.0213 101.932 59.788C101.932 59.536 101.801 59.3493 101.54 59.228C101.288 59.0973 100.882 58.9573 100.322 58.808C99.7435 58.668 99.2675 58.5233 98.8941 58.374C98.5301 58.2247 98.2128 57.996 97.9421 57.688C97.6808 57.38 97.5501 56.9647 97.5501 56.442C97.5501 56.0127 97.6715 55.6207 97.9141 55.266C98.1661 54.9113 98.5208 54.6313 98.9781 54.426C99.4448 54.2207 99.9908 54.118 100.616 54.118C101.54 54.118 102.277 54.3513 102.828 54.818C103.379 55.2753 103.682 55.896 103.738 56.68H101.862C101.834 56.372 101.703 56.1293 101.47 55.952C101.246 55.7653 100.943 55.672 100.56 55.672C100.205 55.672 99.9301 55.7373 99.7341 55.868C99.5475 55.9987 99.4541 56.1807 99.4541 56.414C99.4541 56.6753 99.5848 56.876 99.8461 57.016C100.107 57.1467 100.513 57.282 101.064 57.422C101.624 57.562 102.086 57.7067 102.45 57.856C102.814 58.0053 103.127 58.2387 103.388 58.556C103.659 58.864 103.799 59.2747 103.808 59.788C103.808 60.236 103.682 60.6373 103.43 60.992C103.187 61.3467 102.833 61.6267 102.366 61.832C101.909 62.028 101.372 62.126 100.756 62.126ZM108.529 58.094C108.529 57.31 108.683 56.6147 108.991 56.008C109.308 55.4013 109.733 54.9347 110.265 54.608C110.806 54.2813 111.408 54.118 112.071 54.118C112.65 54.118 113.154 54.2347 113.583 54.468C114.022 54.7013 114.372 54.9953 114.633 55.35V54.244H116.607V62H114.633V60.866C114.381 61.23 114.031 61.5333 113.583 61.776C113.144 62.0093 112.636 62.126 112.057 62.126C111.404 62.126 110.806 61.958 110.265 61.622C109.733 61.286 109.308 60.8147 108.991 60.208C108.683 59.592 108.529 58.8873 108.529 58.094ZM114.633 58.122C114.633 57.646 114.54 57.24 114.353 56.904C114.166 56.5587 113.914 56.2973 113.597 56.12C113.28 55.9333 112.939 55.84 112.575 55.84C112.211 55.84 111.875 55.9287 111.567 56.106C111.259 56.2833 111.007 56.5447 110.811 56.89C110.624 57.226 110.531 57.6273 110.531 58.094C110.531 58.5607 110.624 58.9713 110.811 59.326C111.007 59.6713 111.259 59.9373 111.567 60.124C111.884 60.3107 112.22 60.404 112.575 60.404C112.939 60.404 113.28 60.3153 113.597 60.138C113.914 59.9513 114.166 59.69 114.353 59.354C114.54 59.0087 114.633 58.598 114.633 58.122ZM120.621 51.64V62H118.661V51.64H120.621ZM124.658 51.64V62H122.698V51.64H124.658ZM136.244 52.228V53.81H132.17V56.316H135.292V57.87H132.17V62H130.21V52.228H136.244ZM144.984 57.954C144.984 58.234 144.965 58.486 144.928 58.71H139.258C139.305 59.27 139.501 59.7087 139.846 60.026C140.191 60.3433 140.616 60.502 141.12 60.502C141.848 60.502 142.366 60.1893 142.674 59.564H144.788C144.564 60.3107 144.135 60.9267 143.5 61.412C142.865 61.888 142.086 62.126 141.162 62.126C140.415 62.126 139.743 61.9627 139.146 61.636C138.558 61.3 138.096 60.8287 137.76 60.222C137.433 59.6153 137.27 58.9153 137.27 58.122C137.27 57.3193 137.433 56.6147 137.76 56.008C138.087 55.4013 138.544 54.9347 139.132 54.608C139.72 54.2813 140.397 54.118 141.162 54.118C141.899 54.118 142.557 54.2767 143.136 54.594C143.724 54.9113 144.177 55.364 144.494 55.952C144.821 56.5307 144.984 57.198 144.984 57.954ZM142.954 57.394C142.945 56.89 142.763 56.4887 142.408 56.19C142.053 55.882 141.619 55.728 141.106 55.728C140.621 55.728 140.21 55.8773 139.874 56.176C139.547 56.4653 139.347 56.8713 139.272 57.394H142.954ZM146.051 58.094C146.051 57.31 146.205 56.6147 146.513 56.008C146.83 55.4013 147.255 54.9347 147.787 54.608C148.328 54.2813 148.93 54.118 149.593 54.118C150.171 54.118 150.675 54.2347 151.105 54.468C151.543 54.7013 151.893 54.9953 152.155 55.35V54.244H154.129V62H152.155V60.866C151.903 61.23 151.553 61.5333 151.105 61.776C150.666 62.0093 150.157 62.126 149.579 62.126C148.925 62.126 148.328 61.958 147.787 61.622C147.255 61.286 146.83 60.8147 146.513 60.208C146.205 59.592 146.051 58.8873 146.051 58.094ZM152.155 58.122C152.155 57.646 152.061 57.24 151.875 56.904C151.688 56.5587 151.436 56.2973 151.119 56.12C150.801 55.9333 150.461 55.84 150.097 55.84C149.733 55.84 149.397 55.9287 149.089 56.106C148.781 56.2833 148.529 56.5447 148.333 56.89C148.146 57.226 148.053 57.6273 148.053 58.094C148.053 58.5607 148.146 58.9713 148.333 59.326C148.529 59.6713 148.781 59.9373 149.089 60.124C149.406 60.3107 149.742 60.404 150.097 60.404C150.461 60.404 150.801 60.3153 151.119 60.138C151.436 59.9513 151.688 59.69 151.875 59.354C152.061 59.0087 152.155 58.598 152.155 58.122ZM158.465 55.854V59.606C158.465 59.8673 158.526 60.0587 158.647 60.18C158.778 60.292 158.992 60.348 159.291 60.348H160.201V62H158.969C157.317 62 156.491 61.1973 156.491 59.592V55.854H155.567V54.244H156.491V52.326H158.465V54.244H160.201V55.854H158.465ZM169.073 54.244V62H167.099V61.02C166.847 61.356 166.515 61.622 166.105 61.818C165.703 62.0047 165.265 62.098 164.789 62.098C164.182 62.098 163.645 61.972 163.179 61.72C162.712 61.4587 162.343 61.0807 162.073 60.586C161.811 60.082 161.681 59.4847 161.681 58.794V54.244H163.641V58.514C163.641 59.13 163.795 59.606 164.103 59.942C164.411 60.2687 164.831 60.432 165.363 60.432C165.904 60.432 166.329 60.2687 166.637 59.942C166.945 59.606 167.099 59.13 167.099 58.514V54.244H169.073ZM173.107 55.448C173.359 55.0373 173.685 54.7153 174.087 54.482C174.497 54.2487 174.964 54.132 175.487 54.132V56.19H174.969C174.353 56.19 173.886 56.3347 173.569 56.624C173.261 56.9133 173.107 57.4173 173.107 58.136V62H171.147V54.244H173.107V55.448ZM184.157 57.954C184.157 58.234 184.138 58.486 184.101 58.71H178.431C178.477 59.27 178.673 59.7087 179.019 60.026C179.364 60.3433 179.789 60.502 180.293 60.502C181.021 60.502 181.539 60.1893 181.847 59.564H183.961C183.737 60.3107 183.307 60.9267 182.673 61.412C182.038 61.888 181.259 62.126 180.335 62.126C179.588 62.126 178.916 61.9627 178.319 61.636C177.731 61.3 177.269 60.8287 176.933 60.222C176.606 59.6153 176.443 58.9153 176.443 58.122C176.443 57.3193 176.606 56.6147 176.933 56.008C177.259 55.4013 177.717 54.9347 178.305 54.608C178.893 54.2813 179.569 54.118 180.335 54.118C181.072 54.118 181.73 54.2767 182.309 54.594C182.897 54.9113 183.349 55.364 183.667 55.952C183.993 56.5307 184.157 57.198 184.157 57.954ZM182.127 57.394C182.117 56.89 181.935 56.4887 181.581 56.19C181.226 55.882 180.792 55.728 180.279 55.728C179.793 55.728 179.383 55.8773 179.047 56.176C178.72 56.4653 178.519 56.8713 178.445 57.394H182.127ZM188.695 62.126C188.061 62.126 187.491 62.014 186.987 61.79C186.483 61.5567 186.082 61.244 185.783 60.852C185.494 60.46 185.335 60.026 185.307 59.55H187.281C187.319 59.8487 187.463 60.096 187.715 60.292C187.977 60.488 188.299 60.586 188.681 60.586C189.055 60.586 189.344 60.5113 189.549 60.362C189.764 60.2127 189.871 60.0213 189.871 59.788C189.871 59.536 189.741 59.3493 189.479 59.228C189.227 59.0973 188.821 58.9573 188.261 58.808C187.683 58.668 187.207 58.5233 186.833 58.374C186.469 58.2247 186.152 57.996 185.881 57.688C185.62 57.38 185.489 56.9647 185.489 56.442C185.489 56.0127 185.611 55.6207 185.853 55.266C186.105 54.9113 186.46 54.6313 186.917 54.426C187.384 54.2207 187.93 54.118 188.555 54.118C189.479 54.118 190.217 54.3513 190.767 54.818C191.318 55.2753 191.621 55.896 191.677 56.68H189.801C189.773 56.372 189.643 56.1293 189.409 55.952C189.185 55.7653 188.882 55.672 188.499 55.672C188.145 55.672 187.869 55.7373 187.673 55.868C187.487 55.9987 187.393 56.1807 187.393 56.414C187.393 56.6753 187.524 56.876 187.785 57.016C188.047 57.1467 188.453 57.282 189.003 57.422C189.563 57.562 190.025 57.7067 190.389 57.856C190.753 58.0053 191.066 58.2387 191.327 58.556C191.598 58.864 191.738 59.2747 191.747 59.788C191.747 60.236 191.621 60.6373 191.369 60.992C191.127 61.3467 190.772 61.6267 190.305 61.832C189.848 62.028 189.311 62.126 188.695 62.126ZM196.03 52.06L195.806 58.822H194.154L193.916 52.06H196.03ZM195.022 62.098C194.668 62.098 194.374 61.9907 194.14 61.776C193.916 61.552 193.804 61.2767 193.804 60.95C193.804 60.6233 193.916 60.3527 194.14 60.138C194.374 59.914 194.668 59.802 195.022 59.802C195.368 59.802 195.652 59.914 195.876 60.138C196.1 60.3527 196.212 60.6233 196.212 60.95C196.212 61.2767 196.1 61.552 195.876 61.776C195.652 61.9907 195.368 62.098 195.022 62.098Z" fill="white"/>
<g filter="url(#filter0_d_501_182)">
<rect x="24" y="88" width="203" height="40" rx="20" fill="white"/>
</g>
<path d="M87.2119 106.168C86.9879 105.757 86.6799 105.445 86.2879 105.23C85.8959 105.015 85.4386 104.908 84.9159 104.908C84.3372 104.908 83.8239 105.039 83.3759 105.3C82.9279 105.561 82.5779 105.935 82.3259 106.42C82.0739 106.905 81.9479 107.465 81.9479 108.1C81.9479 108.753 82.0739 109.323 82.3259 109.808C82.5872 110.293 82.9466 110.667 83.4039 110.928C83.8612 111.189 84.3932 111.32 84.9999 111.32C85.7466 111.32 86.3579 111.124 86.8339 110.732C87.3099 110.331 87.6226 109.775 87.7719 109.066H84.4119V107.568H89.7039V109.276C89.5732 109.957 89.2932 110.587 88.8639 111.166C88.4346 111.745 87.8792 112.211 87.1979 112.566C86.5259 112.911 85.7699 113.084 84.9299 113.084C83.9872 113.084 83.1332 112.874 82.3679 112.454C81.6119 112.025 81.0146 111.432 80.5759 110.676C80.1466 109.92 79.9319 109.061 79.9319 108.1C79.9319 107.139 80.1466 106.28 80.5759 105.524C81.0146 104.759 81.6119 104.166 82.3679 103.746C83.1332 103.317 83.9826 103.102 84.9159 103.102C86.0172 103.102 86.9739 103.373 87.7859 103.914C88.5979 104.446 89.1579 105.197 89.4659 106.168H87.2119ZM98.504 108.954C98.504 109.234 98.4853 109.486 98.448 109.71H92.778C92.8247 110.27 93.0207 110.709 93.366 111.026C93.7113 111.343 94.136 111.502 94.64 111.502C95.368 111.502 95.886 111.189 96.194 110.564H98.308C98.084 111.311 97.6547 111.927 97.02 112.412C96.3853 112.888 95.606 113.126 94.682 113.126C93.9353 113.126 93.2633 112.963 92.666 112.636C92.078 112.3 91.616 111.829 91.28 111.222C90.9533 110.615 90.79 109.915 90.79 109.122C90.79 108.319 90.9533 107.615 91.28 107.008C91.6067 106.401 92.064 105.935 92.652 105.608C93.24 105.281 93.9167 105.118 94.682 105.118C95.4193 105.118 96.0773 105.277 96.656 105.594C97.244 105.911 97.6967 106.364 98.014 106.952C98.3407 107.531 98.504 108.198 98.504 108.954ZM96.474 108.394C96.4647 107.89 96.2827 107.489 95.928 107.19C95.5733 106.882 95.1393 106.728 94.626 106.728C94.1407 106.728 93.73 106.877 93.394 107.176C93.0673 107.465 92.8667 107.871 92.792 108.394H96.474ZM102.357 106.854V110.606C102.357 110.867 102.417 111.059 102.539 111.18C102.669 111.292 102.884 111.348 103.183 111.348H104.093V113H102.861C101.209 113 100.383 112.197 100.383 110.592V106.854H99.4586V105.244H100.383V103.326H102.357V105.244H104.093V106.854H102.357ZM116.244 106.252C116.244 106.775 116.118 107.265 115.866 107.722C115.624 108.179 115.236 108.548 114.704 108.828C114.182 109.108 113.519 109.248 112.716 109.248H111.078V113H109.118V103.228H112.716C113.472 103.228 114.116 103.359 114.648 103.62C115.18 103.881 115.577 104.241 115.838 104.698C116.109 105.155 116.244 105.673 116.244 106.252ZM112.632 107.666C113.174 107.666 113.575 107.545 113.836 107.302C114.098 107.05 114.228 106.7 114.228 106.252C114.228 105.3 113.696 104.824 112.632 104.824H111.078V107.666H112.632ZM119.736 106.448C119.988 106.037 120.315 105.715 120.716 105.482C121.127 105.249 121.593 105.132 122.116 105.132V107.19H121.598C120.982 107.19 120.515 107.335 120.198 107.624C119.89 107.913 119.736 108.417 119.736 109.136V113H117.776V105.244H119.736V106.448ZM127.02 113.126C126.273 113.126 125.601 112.963 125.004 112.636C124.407 112.3 123.935 111.829 123.59 111.222C123.254 110.615 123.086 109.915 123.086 109.122C123.086 108.329 123.259 107.629 123.604 107.022C123.959 106.415 124.439 105.949 125.046 105.622C125.653 105.286 126.329 105.118 127.076 105.118C127.823 105.118 128.499 105.286 129.106 105.622C129.713 105.949 130.189 106.415 130.534 107.022C130.889 107.629 131.066 108.329 131.066 109.122C131.066 109.915 130.884 110.615 130.52 111.222C130.165 111.829 129.68 112.3 129.064 112.636C128.457 112.963 127.776 113.126 127.02 113.126ZM127.02 111.418C127.375 111.418 127.706 111.334 128.014 111.166C128.331 110.989 128.583 110.727 128.77 110.382C128.957 110.037 129.05 109.617 129.05 109.122C129.05 108.385 128.854 107.82 128.462 107.428C128.079 107.027 127.608 106.826 127.048 106.826C126.488 106.826 126.017 107.027 125.634 107.428C125.261 107.82 125.074 108.385 125.074 109.122C125.074 109.859 125.256 110.429 125.62 110.83C125.993 111.222 126.46 111.418 127.02 111.418ZM144.478 113H142.518L138.08 106.294V113H136.12V103.214H138.08L142.518 109.934V103.214H144.478V113ZM149.999 113.126C149.252 113.126 148.58 112.963 147.983 112.636C147.385 112.3 146.914 111.829 146.569 111.222C146.233 110.615 146.065 109.915 146.065 109.122C146.065 108.329 146.237 107.629 146.583 107.022C146.937 106.415 147.418 105.949 148.025 105.622C148.631 105.286 149.308 105.118 150.055 105.118C150.801 105.118 151.478 105.286 152.085 105.622C152.691 105.949 153.167 106.415 153.513 107.022C153.867 107.629 154.045 108.329 154.045 109.122C154.045 109.915 153.863 110.615 153.499 111.222C153.144 111.829 152.659 112.3 152.043 112.636C151.436 112.963 150.755 113.126 149.999 113.126ZM149.999 111.418C150.353 111.418 150.685 111.334 150.993 111.166C151.31 110.989 151.562 110.727 151.749 110.382C151.935 110.037 152.029 109.617 152.029 109.122C152.029 108.385 151.833 107.82 151.441 107.428C151.058 107.027 150.587 106.826 150.027 106.826C149.467 106.826 148.995 107.027 148.613 107.428C148.239 107.82 148.053 108.385 148.053 109.122C148.053 109.859 148.235 110.429 148.599 110.83C148.972 111.222 149.439 111.418 149.999 111.418ZM166.374 105.244L164.106 113H161.992L160.578 107.582L159.164 113H157.036L154.754 105.244H156.742L158.114 111.152L159.598 105.244H161.67L163.126 111.138L164.498 105.244H166.374ZM170.109 103.06L169.885 109.822H168.233L167.995 103.06H170.109ZM169.101 113.098C168.746 113.098 168.452 112.991 168.219 112.776C167.995 112.552 167.883 112.277 167.883 111.95C167.883 111.623 167.995 111.353 168.219 111.138C168.452 110.914 168.746 110.802 169.101 110.802C169.446 110.802 169.731 110.914 169.955 111.138C170.179 111.353 170.291 111.623 170.291 111.95C170.291 112.277 170.179 112.552 169.955 112.776C169.731 112.991 169.446 113.098 169.101 113.098Z" fill="#4925E9"/>
<defs>
<filter id="filter0_d_501_182" x="22" y="88" width="211" height="48" filterUnits="userSpaceOnUse" color-interpolation-filters="sRGB">
<feFlood flood-opacity="0" result="BackgroundImageFix"/>
<feColorMatrix in="SourceAlpha" type="matrix" values="0 0 0 0 0 0 0 0 0 0 0 0 0 0 0 0 0 0 127 0" result="hardAlpha"/>
<feOffset dx="2" dy="4"/>
<feGaussianBlur stdDeviation="2"/>
<feComposite in2="hardAlpha" operator="out"/>
<feColorMatrix type="matrix" values="0 0 0 0 0.309804 0 0 0 0 0.164706 0 0 0 0 0.917647 0 0 0 0.17 0"/>
<feBlend mode="normal" in2="BackgroundImageFix" result="effect1_dropShadow_501_182"/>
<feBlend mode="normal" in="SourceGraphic" in2="effect1_dropShadow_501_182" result="shape"/>
</filter>
<linearGradient id="paint0_linear_501_182" x1="66" y1="-77.2556" x2="291.168" y2="44.0212" gradientUnits="userSpaceOnUse">
<stop stop-color="#EAABF0"/>
<stop offset="1" stop-color="#4623E9"/>
</linearGradient>
</defs>
</svg>
