<svg width="92" height="11" viewBox="0 0 92 11" fill="none" xmlns="http://www.w3.org/2000/svg">
<path d="M8.21191 3.168C7.98791 2.75733 7.67991 2.44467 7.28791 2.23C6.89591 2.01533 6.43858 1.908 5.91591 1.908C5.33725 1.908 4.82391 2.03867 4.37591 2.3C3.92791 2.56133 3.57791 2.93467 3.32591 3.42C3.07391 3.90533 2.94791 4.46533 2.94791 5.1C2.94791 5.75333 3.07391 6.32267 3.32591 6.808C3.58725 7.29333 3.94658 7.66667 4.40391 7.928C4.86125 8.18933 5.39325 8.32 5.99991 8.32C6.74658 8.32 7.35791 8.124 7.83391 7.732C8.30991 7.33067 8.62258 6.77533 8.77191 6.066H5.41191V4.568H10.7039V6.276C10.5732 6.95733 10.2932 7.58733 9.86391 8.166C9.43458 8.74467 8.87925 9.21133 8.19791 9.566C7.52591 9.91133 6.76991 10.084 5.92991 10.084C4.98725 10.084 4.13325 9.874 3.36791 9.454C2.61191 9.02467 2.01458 8.432 1.57591 7.676C1.14658 6.92 0.931914 6.06133 0.931914 5.1C0.931914 4.13867 1.14658 3.28 1.57591 2.524C2.01458 1.75867 2.61191 1.166 3.36791 0.746C4.13325 0.316666 4.98258 0.102 5.91591 0.102C7.01725 0.102 7.97391 0.372666 8.78591 0.913999C9.59791 1.446 10.1579 2.19733 10.4659 3.168H8.21191ZM19.504 5.954C19.504 6.234 19.4853 6.486 19.448 6.71H13.778C13.8247 7.27 14.0207 7.70867 14.366 8.026C14.7113 8.34333 15.136 8.502 15.64 8.502C16.368 8.502 16.886 8.18933 17.194 7.564H19.308C19.084 8.31067 18.6547 8.92667 18.02 9.412C17.3853 9.888 16.606 10.126 15.682 10.126C14.9353 10.126 14.2633 9.96267 13.666 9.636C13.078 9.3 12.616 8.82867 12.28 8.222C11.9533 7.61533 11.79 6.91533 11.79 6.122C11.79 5.31933 11.9533 4.61467 12.28 4.008C12.6067 3.40133 13.064 2.93467 13.652 2.608C14.24 2.28133 14.9167 2.118 15.682 2.118C16.4193 2.118 17.0773 2.27667 17.656 2.594C18.244 2.91133 18.6967 3.364 19.014 3.952C19.3407 4.53067 19.504 5.198 19.504 5.954ZM17.474 5.394C17.4647 4.89 17.2827 4.48867 16.928 4.19C16.5733 3.882 16.1393 3.728 15.626 3.728C15.1407 3.728 14.73 3.87733 14.394 4.176C14.0673 4.46533 13.8667 4.87133 13.792 5.394H17.474ZM23.3566 3.854V7.606C23.3566 7.86733 23.4173 8.05867 23.5386 8.18C23.6693 8.292 23.884 8.348 24.1826 8.348H25.0926V10H23.8606C22.2086 10 21.3826 9.19733 21.3826 7.592V3.854H20.4586V2.244H21.3826V0.325999H23.3566V2.244H25.0926V3.854H23.3566ZM37.2443 3.252C37.2443 3.77467 37.1183 4.26467 36.8663 4.722C36.6236 5.17933 36.2363 5.548 35.7043 5.828C35.1816 6.108 34.519 6.248 33.7163 6.248H32.0783V10H30.1183V0.228H33.7163C34.4723 0.228 35.1163 0.358666 35.6483 0.62C36.1803 0.881333 36.577 1.24067 36.8383 1.698C37.109 2.15533 37.2443 2.67333 37.2443 3.252ZM33.6323 4.666C34.1736 4.666 34.575 4.54467 34.8363 4.302C35.0976 4.05 35.2283 3.7 35.2283 3.252C35.2283 2.3 34.6963 1.824 33.6323 1.824H32.0783V4.666H33.6323ZM40.7359 3.448C40.9879 3.03733 41.3146 2.71533 41.7159 2.482C42.1265 2.24867 42.5932 2.132 43.1159 2.132V4.19H42.5979C41.9819 4.19 41.5152 4.33467 41.1979 4.624C40.8899 4.91333 40.7359 5.41733 40.7359 6.136V10H38.7759V2.244H40.7359V3.448ZM48.02 10.126C47.2734 10.126 46.6014 9.96267 46.004 9.636C45.4067 9.3 44.9354 8.82867 44.59 8.222C44.254 7.61533 44.086 6.91533 44.086 6.122C44.086 5.32867 44.2587 4.62867 44.604 4.022C44.9587 3.41533 45.4394 2.94867 46.046 2.622C46.6527 2.286 47.3294 2.118 48.076 2.118C48.8227 2.118 49.4994 2.286 50.106 2.622C50.7127 2.94867 51.1887 3.41533 51.534 4.022C51.8887 4.62867 52.066 5.32867 52.066 6.122C52.066 6.91533 51.884 7.61533 51.52 8.222C51.1654 8.82867 50.68 9.3 50.064 9.636C49.4574 9.96267 48.776 10.126 48.02 10.126ZM48.02 8.418C48.3747 8.418 48.706 8.334 49.014 8.166C49.3314 7.98867 49.5834 7.72733 49.77 7.382C49.9567 7.03667 50.05 6.61667 50.05 6.122C50.05 5.38467 49.854 4.82 49.462 4.428C49.0794 4.02667 48.608 3.826 48.048 3.826C47.488 3.826 47.0167 4.02667 46.634 4.428C46.2607 4.82 46.074 5.38467 46.074 6.122C46.074 6.85933 46.256 7.42867 46.62 7.83C46.9934 8.222 47.46 8.418 48.02 8.418ZM65.4777 10H63.5177L59.0797 3.294V10H57.1197V0.213999H59.0797L63.5177 6.934V0.213999H65.4777V10ZM70.9986 10.126C70.252 10.126 69.58 9.96267 68.9826 9.636C68.3853 9.3 67.914 8.82867 67.5686 8.222C67.2326 7.61533 67.0646 6.91533 67.0646 6.122C67.0646 5.32867 67.2373 4.62867 67.5826 4.022C67.9373 3.41533 68.418 2.94867 69.0246 2.622C69.6313 2.286 70.308 2.118 71.0546 2.118C71.8013 2.118 72.478 2.286 73.0846 2.622C73.6913 2.94867 74.1673 3.41533 74.5126 4.022C74.8673 4.62867 75.0446 5.32867 75.0446 6.122C75.0446 6.91533 74.8626 7.61533 74.4986 8.222C74.144 8.82867 73.6586 9.3 73.0426 9.636C72.436 9.96267 71.7546 10.126 70.9986 10.126ZM70.9986 8.418C71.3533 8.418 71.6846 8.334 71.9926 8.166C72.31 7.98867 72.562 7.72733 72.7486 7.382C72.9353 7.03667 73.0286 6.61667 73.0286 6.122C73.0286 5.38467 72.8326 4.82 72.4406 4.428C72.058 4.02667 71.5866 3.826 71.0266 3.826C70.4666 3.826 69.9953 4.02667 69.6126 4.428C69.2393 4.82 69.0526 5.38467 69.0526 6.122C69.0526 6.85933 69.2346 7.42867 69.5986 7.83C69.972 8.222 70.4386 8.418 70.9986 8.418ZM87.3744 2.244L85.1064 10H82.9924L81.5784 4.582L80.1644 10H78.0364L75.7544 2.244H77.7424L79.1144 8.152L80.5984 2.244H82.6704L84.1264 8.138L85.4984 2.244H87.3744ZM91.1089 0.0599995L90.8849 6.822H89.2329L88.9949 0.0599995H91.1089ZM90.1009 10.098C89.7462 10.098 89.4522 9.99067 89.2189 9.776C88.9949 9.552 88.8829 9.27667 88.8829 8.95C88.8829 8.62333 88.9949 8.35267 89.2189 8.138C89.4522 7.914 89.7462 7.802 90.1009 7.802C90.4462 7.802 90.7309 7.914 90.9549 8.138C91.1789 8.35267 91.2909 8.62333 91.2909 8.95C91.2909 9.27667 91.1789 9.552 90.9549 9.776C90.7309 9.99067 90.4462 10.098 90.1009 10.098Z" fill="#4925E9"/>
</svg>
