<svg width="162" height="33" viewBox="0 0 162 33" fill="none" xmlns="http://www.w3.org/2000/svg">
<path d="M2.1373 1.228V7.276C2.1373 7.93867 2.30996 8.44733 2.6553 8.802C3.00063 9.14733 3.48596 9.32 4.1113 9.32C4.74596 9.32 5.23596 9.14733 5.5813 8.802C5.92663 8.44733 6.0993 7.93867 6.0993 7.276V1.228H8.0733V7.262C8.0733 8.09267 7.8913 8.79733 7.5273 9.376C7.17263 9.94533 6.69196 10.3747 6.0853 10.664C5.48796 10.9533 4.82063 11.098 4.0833 11.098C3.3553 11.098 2.69263 10.9533 2.0953 10.664C1.5073 10.3747 1.04063 9.94533 0.695296 9.376C0.349963 8.79733 0.177296 8.09267 0.177296 7.262V1.228H2.1373ZM12.067 4.364C12.319 4.00933 12.6643 3.71533 13.103 3.482C13.551 3.23933 14.0597 3.118 14.629 3.118C15.2917 3.118 15.889 3.28133 16.421 3.608C16.9623 3.93467 17.387 4.40133 17.695 5.008C18.0123 5.60533 18.171 6.30067 18.171 7.094C18.171 7.88733 18.0123 8.592 17.695 9.208C17.387 9.81467 16.9623 10.286 16.421 10.622C15.889 10.958 15.2917 11.126 14.629 11.126C14.0597 11.126 13.5557 11.0093 13.117 10.776C12.6877 10.5427 12.3377 10.2487 12.067 9.894V14.696H10.107V3.244H12.067V4.364ZM16.169 7.094C16.169 6.62733 16.071 6.226 15.875 5.89C15.6883 5.54467 15.4363 5.28333 15.119 5.106C14.811 4.92867 14.475 4.84 14.111 4.84C13.7563 4.84 13.4203 4.93333 13.103 5.12C12.795 5.29733 12.543 5.55867 12.347 5.904C12.1603 6.24933 12.067 6.65533 12.067 7.122C12.067 7.58867 12.1603 7.99467 12.347 8.34C12.543 8.68533 12.795 8.95133 13.103 9.138C13.4203 9.31533 13.7563 9.404 14.111 9.404C14.475 9.404 14.811 9.31067 15.119 9.124C15.4363 8.93733 15.6883 8.67133 15.875 8.326C16.071 7.98067 16.169 7.57 16.169 7.094ZM22.7733 3.118C23.352 3.118 23.8606 3.23467 24.2993 3.468C24.738 3.692 25.0833 3.986 25.3353 4.35V3.244H27.3093V11.056C27.3093 11.7747 27.1646 12.414 26.8753 12.974C26.586 13.5433 26.152 13.9913 25.5733 14.318C24.9946 14.654 24.2946 14.822 23.4733 14.822C22.372 14.822 21.4666 14.5653 20.7573 14.052C20.0573 13.5387 19.6606 12.8387 19.5673 11.952H21.5133C21.616 12.3067 21.8353 12.5867 22.1713 12.792C22.5166 13.0067 22.932 13.114 23.4173 13.114C23.9866 13.114 24.4486 12.9413 24.8033 12.596C25.158 12.26 25.3353 11.7467 25.3353 11.056V9.852C25.0833 10.216 24.7333 10.5193 24.2853 10.762C23.8466 11.0047 23.3426 11.126 22.7733 11.126C22.12 11.126 21.5226 10.958 20.9813 10.622C20.44 10.286 20.0106 9.81467 19.6933 9.208C19.3853 8.592 19.2313 7.88733 19.2313 7.094C19.2313 6.31 19.3853 5.61467 19.6933 5.008C20.0106 4.40133 20.4353 3.93467 20.9673 3.608C21.5086 3.28133 22.1106 3.118 22.7733 3.118ZM25.3353 7.122C25.3353 6.646 25.242 6.24 25.0553 5.904C24.8686 5.55867 24.6166 5.29733 24.2993 5.12C23.982 4.93333 23.6413 4.84 23.2773 4.84C22.9133 4.84 22.5773 4.92867 22.2693 5.106C21.9613 5.28333 21.7093 5.54467 21.5133 5.89C21.3266 6.226 21.2333 6.62733 21.2333 7.094C21.2333 7.56067 21.3266 7.97133 21.5133 8.326C21.7093 8.67133 21.9613 8.93733 22.2693 9.124C22.5866 9.31067 22.9226 9.404 23.2773 9.404C23.6413 9.404 23.982 9.31533 24.2993 9.138C24.6166 8.95133 24.8686 8.69 25.0553 8.354C25.242 8.00867 25.3353 7.598 25.3353 7.122ZM31.3236 4.448C31.5756 4.03733 31.9022 3.71533 32.3036 3.482C32.7142 3.24867 33.1809 3.132 33.7036 3.132V5.19H33.1856C32.5696 5.19 32.1029 5.33467 31.7856 5.624C31.4776 5.91333 31.3236 6.41733 31.3236 7.136V11H29.3636V3.244H31.3236V4.448ZM34.6597 7.094C34.6597 6.31 34.8137 5.61467 35.1217 5.008C35.4391 4.40133 35.8637 3.93467 36.3957 3.608C36.9371 3.28133 37.5391 3.118 38.2017 3.118C38.7804 3.118 39.2844 3.23467 39.7137 3.468C40.1524 3.70133 40.5024 3.99533 40.7637 4.35V3.244H42.7377V11H40.7637V9.866C40.5117 10.23 40.1617 10.5333 39.7137 10.776C39.2751 11.0093 38.7664 11.126 38.1877 11.126C37.5344 11.126 36.9371 10.958 36.3957 10.622C35.8637 10.286 35.4391 9.81467 35.1217 9.208C34.8137 8.592 34.6597 7.88733 34.6597 7.094ZM40.7637 7.122C40.7637 6.646 40.6704 6.24 40.4837 5.904C40.2971 5.55867 40.0451 5.29733 39.7277 5.12C39.4104 4.93333 39.0697 4.84 38.7057 4.84C38.3417 4.84 38.0057 4.92867 37.6977 5.106C37.3897 5.28333 37.1377 5.54467 36.9417 5.89C36.7551 6.226 36.6617 6.62733 36.6617 7.094C36.6617 7.56067 36.7551 7.97133 36.9417 8.326C37.1377 8.67133 37.3897 8.93733 37.6977 9.124C38.0151 9.31067 38.3511 9.404 38.7057 9.404C39.0697 9.404 39.4104 9.31533 39.7277 9.138C40.0451 8.95133 40.2971 8.69 40.4837 8.354C40.6704 8.00867 40.7637 7.598 40.7637 7.122ZM44.288 7.094C44.288 6.31 44.442 5.61467 44.75 5.008C45.0673 4.40133 45.4967 3.93467 46.038 3.608C46.5793 3.28133 47.1813 3.118 47.844 3.118C48.348 3.118 48.8287 3.23 49.286 3.454C49.7433 3.66867 50.1073 3.958 50.378 4.322V0.64H52.366V11H50.378V9.852C50.1353 10.2347 49.7947 10.5427 49.356 10.776C48.9173 11.0093 48.4087 11.126 47.83 11.126C47.1767 11.126 46.5793 10.958 46.038 10.622C45.4967 10.286 45.0673 9.81467 44.75 9.208C44.442 8.592 44.288 7.88733 44.288 7.094ZM50.392 7.122C50.392 6.646 50.2987 6.24 50.112 5.904C49.9253 5.55867 49.6733 5.29733 49.356 5.12C49.0387 4.93333 48.698 4.84 48.334 4.84C47.97 4.84 47.634 4.92867 47.326 5.106C47.018 5.28333 46.766 5.54467 46.57 5.89C46.3833 6.226 46.29 6.62733 46.29 7.094C46.29 7.56067 46.3833 7.97133 46.57 8.326C46.766 8.67133 47.018 8.93733 47.326 9.124C47.6433 9.31067 47.9793 9.404 48.334 9.404C48.698 9.404 49.0387 9.31533 49.356 9.138C49.6733 8.95133 49.9253 8.69 50.112 8.354C50.2987 8.00867 50.392 7.598 50.392 7.122ZM61.6303 6.954C61.6303 7.234 61.6116 7.486 61.5743 7.71H55.9043C55.951 8.27 56.147 8.70867 56.4923 9.026C56.8376 9.34333 57.2623 9.502 57.7663 9.502C58.4943 9.502 59.0123 9.18933 59.3203 8.564H61.4343C61.2103 9.31067 60.781 9.92667 60.1463 10.412C59.5116 10.888 58.7323 11.126 57.8083 11.126C57.0616 11.126 56.3896 10.9627 55.7923 10.636C55.2043 10.3 54.7423 9.82867 54.4063 9.222C54.0796 8.61533 53.9163 7.91533 53.9163 7.122C53.9163 6.31933 54.0796 5.61467 54.4063 5.008C54.733 4.40133 55.1903 3.93467 55.7783 3.608C56.3663 3.28133 57.043 3.118 57.8083 3.118C58.5456 3.118 59.2036 3.27667 59.7823 3.594C60.3703 3.91133 60.823 4.364 61.1403 4.952C61.467 5.53067 61.6303 6.198 61.6303 6.954ZM59.6003 6.394C59.591 5.89 59.409 5.48867 59.0543 5.19C58.6996 4.882 58.2656 4.728 57.7523 4.728C57.267 4.728 56.8563 4.87733 56.5203 5.176C56.1936 5.46533 55.993 5.87133 55.9183 6.394H59.6003ZM68.9589 4.854V8.606C68.9589 8.86733 69.0195 9.05867 69.1409 9.18C69.2715 9.292 69.4862 9.348 69.7849 9.348H70.6949V11H69.4629C67.8109 11 66.9849 10.1973 66.9849 8.592V4.854H66.0609V3.244H66.9849V1.326H68.9589V3.244H70.6949V4.854H68.9589ZM75.6886 11.126C74.9419 11.126 74.2699 10.9627 73.6726 10.636C73.0753 10.3 72.6039 9.82867 72.2586 9.222C71.9226 8.61533 71.7546 7.91533 71.7546 7.122C71.7546 6.32867 71.9273 5.62867 72.2726 5.022C72.6273 4.41533 73.1079 3.94867 73.7146 3.622C74.3213 3.286 74.9979 3.118 75.7446 3.118C76.4913 3.118 77.1679 3.286 77.7746 3.622C78.3813 3.94867 78.8573 4.41533 79.2026 5.022C79.5573 5.62867 79.7346 6.32867 79.7346 7.122C79.7346 7.91533 79.5526 8.61533 79.1886 9.222C78.8339 9.82867 78.3486 10.3 77.7326 10.636C77.1259 10.9627 76.4446 11.126 75.6886 11.126ZM75.6886 9.418C76.0433 9.418 76.3746 9.334 76.6826 9.166C76.9999 8.98867 77.2519 8.72733 77.4386 8.382C77.6253 8.03667 77.7186 7.61667 77.7186 7.122C77.7186 6.38467 77.5226 5.82 77.1306 5.428C76.7479 5.02667 76.2766 4.826 75.7166 4.826C75.1566 4.826 74.6853 5.02667 74.3026 5.428C73.9293 5.82 73.7426 6.38467 73.7426 7.122C73.7426 7.85933 73.9246 8.42867 74.2886 8.83C74.6619 9.222 75.1286 9.418 75.6886 9.418ZM95.3902 4.252C95.3902 4.77467 95.2642 5.26467 95.0122 5.722C94.7695 6.17933 94.3822 6.548 93.8502 6.828C93.3275 7.108 92.6649 7.248 91.8622 7.248H90.2242V11H88.2642V1.228H91.8622C92.6182 1.228 93.2622 1.35867 93.7942 1.62C94.3262 1.88133 94.7229 2.24067 94.9842 2.698C95.2549 3.15533 95.3902 3.67333 95.3902 4.252ZM91.7782 5.666C92.3195 5.666 92.7209 5.54467 92.9822 5.302C93.2435 5.05 93.3742 4.7 93.3742 4.252C93.3742 3.3 92.8422 2.824 91.7782 2.824H90.2242V5.666H91.7782ZM101.962 11L99.8058 7.192H98.8818V11H96.9218V1.228H100.59C101.346 1.228 101.99 1.36333 102.522 1.634C103.054 1.89533 103.45 2.25467 103.712 2.712C103.982 3.16 104.118 3.664 104.118 4.224C104.118 4.868 103.931 5.45133 103.558 5.974C103.184 6.48733 102.629 6.842 101.892 7.038L104.23 11H101.962ZM98.8818 5.722H100.52C101.052 5.722 101.448 5.596 101.71 5.344C101.971 5.08267 102.102 4.72333 102.102 4.266C102.102 3.818 101.971 3.47267 101.71 3.23C101.448 2.978 101.052 2.852 100.52 2.852H98.8818V5.722ZM110.567 11.098C109.652 11.098 108.812 10.8833 108.047 10.454C107.281 10.0247 106.675 9.432 106.227 8.676C105.779 7.91067 105.555 7.04733 105.555 6.086C105.555 5.134 105.779 4.28 106.227 3.524C106.675 2.75867 107.281 2.16133 108.047 1.732C108.812 1.30267 109.652 1.088 110.567 1.088C111.491 1.088 112.331 1.30267 113.087 1.732C113.852 2.16133 114.454 2.75867 114.893 3.524C115.341 4.28 115.565 5.134 115.565 6.086C115.565 7.04733 115.341 7.91067 114.893 8.676C114.454 9.432 113.852 10.0247 113.087 10.454C112.321 10.8833 111.481 11.098 110.567 11.098ZM110.567 9.348C111.155 9.348 111.673 9.21733 112.121 8.956C112.569 8.68533 112.919 8.30267 113.171 7.808C113.423 7.31333 113.549 6.73933 113.549 6.086C113.549 5.43267 113.423 4.86333 113.171 4.378C112.919 3.88333 112.569 3.50533 112.121 3.244C111.673 2.98267 111.155 2.852 110.567 2.852C109.979 2.852 109.456 2.98267 108.999 3.244C108.551 3.50533 108.201 3.88333 107.949 4.378C107.697 4.86333 107.571 5.43267 107.571 6.086C107.571 6.73933 107.697 7.31333 107.949 7.808C108.201 8.30267 108.551 8.68533 108.999 8.956C109.456 9.21733 109.979 9.348 110.567 9.348ZM122.921 4.854V8.606C122.921 8.86733 122.981 9.05867 123.103 9.18C123.233 9.292 123.448 9.348 123.747 9.348H124.657V11H123.425C121.773 11 120.947 10.1973 120.947 8.592V4.854H120.023V3.244H120.947V1.326H122.921V3.244H124.657V4.854H122.921ZM129.65 11.126C128.904 11.126 128.232 10.9627 127.634 10.636C127.037 10.3 126.566 9.82867 126.22 9.222C125.884 8.61533 125.716 7.91533 125.716 7.122C125.716 6.32867 125.889 5.62867 126.234 5.022C126.589 4.41533 127.07 3.94867 127.676 3.622C128.283 3.286 128.96 3.118 129.706 3.118C130.453 3.118 131.13 3.286 131.736 3.622C132.343 3.94867 132.819 4.41533 133.164 5.022C133.519 5.62867 133.696 6.32867 133.696 7.122C133.696 7.91533 133.514 8.61533 133.15 9.222C132.796 9.82867 132.31 10.3 131.694 10.636C131.088 10.9627 130.406 11.126 129.65 11.126ZM129.65 9.418C130.005 9.418 130.336 9.334 130.644 9.166C130.962 8.98867 131.214 8.72733 131.4 8.382C131.587 8.03667 131.68 7.61667 131.68 7.122C131.68 6.38467 131.484 5.82 131.092 5.428C130.71 5.02667 130.238 4.826 129.678 4.826C129.118 4.826 128.647 5.02667 128.264 5.428C127.891 5.82 127.704 6.38467 127.704 7.122C127.704 7.85933 127.886 8.42867 128.25 8.83C128.624 9.222 129.09 9.418 129.65 9.418ZM141.788 3.118C142.367 3.118 142.875 3.23467 143.314 3.468C143.753 3.692 144.098 3.986 144.35 4.35V3.244H146.324V11.056C146.324 11.7747 146.179 12.414 145.89 12.974C145.601 13.5433 145.167 13.9913 144.588 14.318C144.009 14.654 143.309 14.822 142.488 14.822C141.387 14.822 140.481 14.5653 139.772 14.052C139.072 13.5387 138.675 12.8387 138.582 11.952H140.528C140.631 12.3067 140.85 12.5867 141.186 12.792C141.531 13.0067 141.947 13.114 142.432 13.114C143.001 13.114 143.463 12.9413 143.818 12.596C144.173 12.26 144.35 11.7467 144.35 11.056V9.852C144.098 10.216 143.748 10.5193 143.3 10.762C142.861 11.0047 142.357 11.126 141.788 11.126C141.135 11.126 140.537 10.958 139.996 10.622C139.455 10.286 139.025 9.81467 138.708 9.208C138.4 8.592 138.246 7.88733 138.246 7.094C138.246 6.31 138.4 5.61467 138.708 5.008C139.025 4.40133 139.45 3.93467 139.982 3.608C140.523 3.28133 141.125 3.118 141.788 3.118ZM144.35 7.122C144.35 6.646 144.257 6.24 144.07 5.904C143.883 5.55867 143.631 5.29733 143.314 5.12C142.997 4.93333 142.656 4.84 142.292 4.84C141.928 4.84 141.592 4.92867 141.284 5.106C140.976 5.28333 140.724 5.54467 140.528 5.89C140.341 6.226 140.248 6.62733 140.248 7.094C140.248 7.56067 140.341 7.97133 140.528 8.326C140.724 8.67133 140.976 8.93733 141.284 9.124C141.601 9.31067 141.937 9.404 142.292 9.404C142.656 9.404 142.997 9.31533 143.314 9.138C143.631 8.95133 143.883 8.69 144.07 8.354C144.257 8.00867 144.35 7.598 144.35 7.122ZM155.588 6.954C155.588 7.234 155.57 7.486 155.532 7.71H149.862C149.909 8.27 150.105 8.70867 150.45 9.026C150.796 9.34333 151.22 9.502 151.724 9.502C152.452 9.502 152.97 9.18933 153.278 8.564H155.392C155.168 9.31067 154.739 9.92667 154.104 10.412C153.47 10.888 152.69 11.126 151.766 11.126C151.02 11.126 150.348 10.9627 149.75 10.636C149.162 10.3 148.7 9.82867 148.364 9.222C148.038 8.61533 147.874 7.91533 147.874 7.122C147.874 6.31933 148.038 5.61467 148.364 5.008C148.691 4.40133 149.148 3.93467 149.736 3.608C150.324 3.28133 151.001 3.118 151.766 3.118C152.504 3.118 153.162 3.27667 153.74 3.594C154.328 3.91133 154.781 4.364 155.098 4.952C155.425 5.53067 155.588 6.198 155.588 6.954ZM153.558 6.394C153.549 5.89 153.367 5.48867 153.012 5.19C152.658 4.882 152.224 4.728 151.71 4.728C151.225 4.728 150.814 4.87733 150.478 5.176C150.152 5.46533 149.951 5.87133 149.876 6.394H153.558ZM159.441 4.854V8.606C159.441 8.86733 159.502 9.05867 159.623 9.18C159.754 9.292 159.968 9.348 160.267 9.348H161.177V11H159.945C158.293 11 157.467 10.1973 157.467 8.592V4.854H156.543V3.244H157.467V1.326H159.441V3.244H161.177V4.854H159.441ZM8.98258 28.094C8.98258 27.31 9.13658 26.6147 9.44458 26.008C9.76192 25.4013 10.1866 24.9347 10.7186 24.608C11.2599 24.2813 11.8619 24.118 12.5246 24.118C13.1033 24.118 13.6073 24.2347 14.0366 24.468C14.4753 24.7013 14.8253 24.9953 15.0866 25.35V24.244H17.0606V32H15.0866V30.866C14.8346 31.23 14.4846 31.5333 14.0366 31.776C13.5979 32.0093 13.0893 32.126 12.5106 32.126C11.8573 32.126 11.2599 31.958 10.7186 31.622C10.1866 31.286 9.76192 30.8147 9.44458 30.208C9.13658 29.592 8.98258 28.8873 8.98258 28.094ZM15.0866 28.122C15.0866 27.646 14.9933 27.24 14.8066 26.904C14.6199 26.5587 14.3679 26.2973 14.0506 26.12C13.7333 25.9333 13.3926 25.84 13.0286 25.84C12.6646 25.84 12.3286 25.9287 12.0206 26.106C11.7126 26.2833 11.4606 26.5447 11.2646 26.89C11.0779 27.226 10.9846 27.6273 10.9846 28.094C10.9846 28.5607 11.0779 28.9713 11.2646 29.326C11.4606 29.6713 11.7126 29.9373 12.0206 30.124C12.3379 30.3107 12.6739 30.404 13.0286 30.404C13.3926 30.404 13.7333 30.3153 14.0506 30.138C14.3679 29.9513 14.6199 29.69 14.8066 29.354C14.9933 29.0087 15.0866 28.598 15.0866 28.122ZM18.6109 28.122C18.6109 27.3193 18.7742 26.6193 19.1009 26.022C19.4275 25.4153 19.8802 24.9487 20.4589 24.622C21.0375 24.286 21.7002 24.118 22.4469 24.118C23.4082 24.118 24.2015 24.3607 24.8269 24.846C25.4615 25.322 25.8862 25.994 26.1009 26.862H23.9869C23.8749 26.526 23.6835 26.2647 23.4129 26.078C23.1515 25.882 22.8249 25.784 22.4329 25.784C21.8729 25.784 21.4295 25.9893 21.1029 26.4C20.7762 26.8013 20.6129 27.3753 20.6129 28.122C20.6129 28.8593 20.7762 29.4333 21.1029 29.844C21.4295 30.2453 21.8729 30.446 22.4329 30.446C23.2262 30.446 23.7442 30.0913 23.9869 29.382H26.1009C25.8862 30.222 25.4615 30.8893 24.8269 31.384C24.1922 31.8787 23.3989 32.126 22.4469 32.126C21.7002 32.126 21.0375 31.9627 20.4589 31.636C19.8802 31.3 19.4275 30.8333 19.1009 30.236C18.7742 29.6293 18.6109 28.9247 18.6109 28.122ZM27.1727 28.122C27.1727 27.3193 27.3361 26.6193 27.6627 26.022C27.9894 25.4153 28.4421 24.9487 29.0207 24.622C29.5994 24.286 30.2621 24.118 31.0087 24.118C31.9701 24.118 32.7634 24.3607 33.3887 24.846C34.0234 25.322 34.4481 25.994 34.6627 26.862H32.5487C32.4367 26.526 32.2454 26.2647 31.9747 26.078C31.7134 25.882 31.3867 25.784 30.9947 25.784C30.4347 25.784 29.9914 25.9893 29.6647 26.4C29.3381 26.8013 29.1747 27.3753 29.1747 28.122C29.1747 28.8593 29.3381 29.4333 29.6647 29.844C29.9914 30.2453 30.4347 30.446 30.9947 30.446C31.7881 30.446 32.3061 30.0913 32.5487 29.382H34.6627C34.4481 30.222 34.0234 30.8893 33.3887 31.384C32.7541 31.8787 31.9607 32.126 31.0087 32.126C30.2621 32.126 29.5994 31.9627 29.0207 31.636C28.4421 31.3 27.9894 30.8333 27.6627 30.236C27.3361 29.6293 27.1727 28.9247 27.1727 28.122ZM43.4486 27.954C43.4486 28.234 43.4299 28.486 43.3926 28.71H37.7226C37.7693 29.27 37.9653 29.7087 38.3106 30.026C38.6559 30.3433 39.0806 30.502 39.5846 30.502C40.3126 30.502 40.8306 30.1893 41.1386 29.564H43.2526C43.0286 30.3107 42.5993 30.9267 41.9646 31.412C41.3299 31.888 40.5506 32.126 39.6266 32.126C38.8799 32.126 38.2079 31.9627 37.6106 31.636C37.0226 31.3 36.5606 30.8287 36.2246 30.222C35.8979 29.6153 35.7346 28.9153 35.7346 28.122C35.7346 27.3193 35.8979 26.6147 36.2246 26.008C36.5513 25.4013 37.0086 24.9347 37.5966 24.608C38.1846 24.2813 38.8613 24.118 39.6266 24.118C40.3639 24.118 41.0219 24.2767 41.6006 24.594C42.1886 24.9113 42.6413 25.364 42.9586 25.952C43.2853 26.5307 43.4486 27.198 43.4486 27.954ZM41.4186 27.394C41.4093 26.89 41.2273 26.4887 40.8726 26.19C40.5179 25.882 40.0839 25.728 39.5706 25.728C39.0853 25.728 38.6746 25.8773 38.3386 26.176C38.0119 26.4653 37.8113 26.8713 37.7366 27.394H41.4186ZM47.9872 32.126C47.3526 32.126 46.7832 32.014 46.2792 31.79C45.7752 31.5567 45.3739 31.244 45.0752 30.852C44.7859 30.46 44.6272 30.026 44.5992 29.55H46.5732C46.6106 29.8487 46.7552 30.096 47.0072 30.292C47.2686 30.488 47.5906 30.586 47.9732 30.586C48.3466 30.586 48.6359 30.5113 48.8412 30.362C49.0559 30.2127 49.1632 30.0213 49.1632 29.788C49.1632 29.536 49.0326 29.3493 48.7712 29.228C48.5192 29.0973 48.1132 28.9573 47.5532 28.808C46.9746 28.668 46.4986 28.5233 46.1252 28.374C45.7612 28.2247 45.4439 27.996 45.1732 27.688C44.9119 27.38 44.7812 26.9647 44.7812 26.442C44.7812 26.0127 44.9026 25.6207 45.1452 25.266C45.3972 24.9113 45.7519 24.6313 46.2092 24.426C46.6759 24.2207 47.2219 24.118 47.8472 24.118C48.7712 24.118 49.5086 24.3513 50.0592 24.818C50.6099 25.2753 50.9132 25.896 50.9692 26.68H49.0932C49.0652 26.372 48.9346 26.1293 48.7012 25.952C48.4772 25.7653 48.1739 25.672 47.7912 25.672C47.4366 25.672 47.1612 25.7373 46.9652 25.868C46.7786 25.9987 46.6852 26.1807 46.6852 26.414C46.6852 26.6753 46.8159 26.876 47.0772 27.016C47.3386 27.1467 47.7446 27.282 48.2952 27.422C48.8552 27.562 49.3172 27.7067 49.6812 27.856C50.0452 28.0053 50.3579 28.2387 50.6192 28.556C50.8899 28.864 51.0299 29.2747 51.0392 29.788C51.0392 30.236 50.9132 30.6373 50.6612 30.992C50.4186 31.3467 50.0639 31.6267 49.5972 31.832C49.1399 32.028 48.6032 32.126 47.9872 32.126ZM55.7561 32.126C55.1215 32.126 54.5521 32.014 54.0481 31.79C53.5441 31.5567 53.1428 31.244 52.8441 30.852C52.5548 30.46 52.3961 30.026 52.3681 29.55H54.3421C54.3795 29.8487 54.5241 30.096 54.7761 30.292C55.0375 30.488 55.3595 30.586 55.7421 30.586C56.1155 30.586 56.4048 30.5113 56.6101 30.362C56.8248 30.2127 56.9321 30.0213 56.9321 29.788C56.9321 29.536 56.8015 29.3493 56.5401 29.228C56.2881 29.0973 55.8821 28.9573 55.3221 28.808C54.7435 28.668 54.2675 28.5233 53.8941 28.374C53.5301 28.2247 53.2128 27.996 52.9421 27.688C52.6808 27.38 52.5501 26.9647 52.5501 26.442C52.5501 26.0127 52.6715 25.6207 52.9141 25.266C53.1661 24.9113 53.5208 24.6313 53.9781 24.426C54.4448 24.2207 54.9908 24.118 55.6161 24.118C56.5401 24.118 57.2775 24.3513 57.8281 24.818C58.3788 25.2753 58.6821 25.896 58.7381 26.68H56.8621C56.8341 26.372 56.7035 26.1293 56.4701 25.952C56.2461 25.7653 55.9428 25.672 55.5601 25.672C55.2055 25.672 54.9301 25.7373 54.7341 25.868C54.5475 25.9987 54.4541 26.1807 54.4541 26.414C54.4541 26.6753 54.5848 26.876 54.8461 27.016C55.1075 27.1467 55.5135 27.282 56.0641 27.422C56.6241 27.562 57.0861 27.7067 57.4501 27.856C57.8141 28.0053 58.1268 28.2387 58.3881 28.556C58.6588 28.864 58.7988 29.2747 58.8081 29.788C58.8081 30.236 58.6821 30.6373 58.4301 30.992C58.1875 31.3467 57.8328 31.6267 57.3661 31.832C56.9088 32.028 56.3721 32.126 55.7561 32.126ZM63.529 28.094C63.529 27.31 63.683 26.6147 63.991 26.008C64.3083 25.4013 64.733 24.9347 65.265 24.608C65.8063 24.2813 66.4083 24.118 67.071 24.118C67.6497 24.118 68.1537 24.2347 68.583 24.468C69.0217 24.7013 69.3717 24.9953 69.633 25.35V24.244H71.607V32H69.633V30.866C69.381 31.23 69.031 31.5333 68.583 31.776C68.1443 32.0093 67.6357 32.126 67.057 32.126C66.4037 32.126 65.8063 31.958 65.265 31.622C64.733 31.286 64.3083 30.8147 63.991 30.208C63.683 29.592 63.529 28.8873 63.529 28.094ZM69.633 28.122C69.633 27.646 69.5397 27.24 69.353 26.904C69.1663 26.5587 68.9143 26.2973 68.597 26.12C68.2797 25.9333 67.939 25.84 67.575 25.84C67.211 25.84 66.875 25.9287 66.567 26.106C66.259 26.2833 66.007 26.5447 65.811 26.89C65.6243 27.226 65.531 27.6273 65.531 28.094C65.531 28.5607 65.6243 28.9713 65.811 29.326C66.007 29.6713 66.259 29.9373 66.567 30.124C66.8843 30.3107 67.2203 30.404 67.575 30.404C67.939 30.404 68.2797 30.3153 68.597 30.138C68.9143 29.9513 69.1663 29.69 69.353 29.354C69.5397 29.0087 69.633 28.598 69.633 28.122ZM75.6213 21.64V32H73.6613V21.64H75.6213ZM79.6578 21.64V32H77.6978V21.64H79.6578ZM91.2442 22.228V23.81H87.1702V26.316H90.2922V27.87H87.1702V32H85.2102V22.228H91.2442ZM99.984 27.954C99.984 28.234 99.9653 28.486 99.928 28.71H94.258C94.3047 29.27 94.5007 29.7087 94.846 30.026C95.1913 30.3433 95.616 30.502 96.12 30.502C96.848 30.502 97.366 30.1893 97.674 29.564H99.788C99.564 30.3107 99.1347 30.9267 98.5 31.412C97.8653 31.888 97.086 32.126 96.162 32.126C95.4153 32.126 94.7433 31.9627 94.146 31.636C93.558 31.3 93.096 30.8287 92.76 30.222C92.4333 29.6153 92.27 28.9153 92.27 28.122C92.27 27.3193 92.4333 26.6147 92.76 26.008C93.0867 25.4013 93.544 24.9347 94.132 24.608C94.72 24.2813 95.3967 24.118 96.162 24.118C96.8993 24.118 97.5573 24.2767 98.136 24.594C98.724 24.9113 99.1767 25.364 99.494 25.952C99.8207 26.5307 99.984 27.198 99.984 27.954ZM97.954 27.394C97.9447 26.89 97.7627 26.4887 97.408 26.19C97.0533 25.882 96.6193 25.728 96.106 25.728C95.6207 25.728 95.21 25.8773 94.874 26.176C94.5473 26.4653 94.3467 26.8713 94.272 27.394H97.954ZM101.051 28.094C101.051 27.31 101.205 26.6147 101.513 26.008C101.83 25.4013 102.255 24.9347 102.787 24.608C103.328 24.2813 103.93 24.118 104.593 24.118C105.171 24.118 105.675 24.2347 106.105 24.468C106.543 24.7013 106.893 24.9953 107.155 25.35V24.244H109.129V32H107.155V30.866C106.903 31.23 106.553 31.5333 106.105 31.776C105.666 32.0093 105.157 32.126 104.579 32.126C103.925 32.126 103.328 31.958 102.787 31.622C102.255 31.286 101.83 30.8147 101.513 30.208C101.205 29.592 101.051 28.8873 101.051 28.094ZM107.155 28.122C107.155 27.646 107.061 27.24 106.875 26.904C106.688 26.5587 106.436 26.2973 106.119 26.12C105.801 25.9333 105.461 25.84 105.097 25.84C104.733 25.84 104.397 25.9287 104.089 26.106C103.781 26.2833 103.529 26.5447 103.333 26.89C103.146 27.226 103.053 27.6273 103.053 28.094C103.053 28.5607 103.146 28.9713 103.333 29.326C103.529 29.6713 103.781 29.9373 104.089 30.124C104.406 30.3107 104.742 30.404 105.097 30.404C105.461 30.404 105.801 30.3153 106.119 30.138C106.436 29.9513 106.688 29.69 106.875 29.354C107.061 29.0087 107.155 28.598 107.155 28.122ZM113.465 25.854V29.606C113.465 29.8673 113.526 30.0587 113.647 30.18C113.778 30.292 113.992 30.348 114.291 30.348H115.201V32H113.969C112.317 32 111.491 31.1973 111.491 29.592V25.854H110.567V24.244H111.491V22.326H113.465V24.244H115.201V25.854H113.465ZM124.073 24.244V32H122.099V31.02C121.847 31.356 121.515 31.622 121.105 31.818C120.703 32.0047 120.265 32.098 119.789 32.098C119.182 32.098 118.645 31.972 118.179 31.72C117.712 31.4587 117.343 31.0807 117.073 30.586C116.811 30.082 116.681 29.4847 116.681 28.794V24.244H118.641V28.514C118.641 29.13 118.795 29.606 119.103 29.942C119.411 30.2687 119.831 30.432 120.363 30.432C120.904 30.432 121.329 30.2687 121.637 29.942C121.945 29.606 122.099 29.13 122.099 28.514V24.244H124.073ZM128.107 25.448C128.359 25.0373 128.685 24.7153 129.087 24.482C129.497 24.2487 129.964 24.132 130.487 24.132V26.19H129.969C129.353 26.19 128.886 26.3347 128.569 26.624C128.261 26.9133 128.107 27.4173 128.107 28.136V32H126.147V24.244H128.107V25.448ZM139.157 27.954C139.157 28.234 139.138 28.486 139.101 28.71H133.431C133.477 29.27 133.673 29.7087 134.019 30.026C134.364 30.3433 134.789 30.502 135.293 30.502C136.021 30.502 136.539 30.1893 136.847 29.564H138.961C138.737 30.3107 138.307 30.9267 137.673 31.412C137.038 31.888 136.259 32.126 135.335 32.126C134.588 32.126 133.916 31.9627 133.319 31.636C132.731 31.3 132.269 30.8287 131.933 30.222C131.606 29.6153 131.443 28.9153 131.443 28.122C131.443 27.3193 131.606 26.6147 131.933 26.008C132.259 25.4013 132.717 24.9347 133.305 24.608C133.893 24.2813 134.569 24.118 135.335 24.118C136.072 24.118 136.73 24.2767 137.309 24.594C137.897 24.9113 138.349 25.364 138.667 25.952C138.993 26.5307 139.157 27.198 139.157 27.954ZM137.127 27.394C137.117 26.89 136.935 26.4887 136.581 26.19C136.226 25.882 135.792 25.728 135.279 25.728C134.793 25.728 134.383 25.8773 134.047 26.176C133.72 26.4653 133.519 26.8713 133.445 27.394H137.127ZM143.695 32.126C143.061 32.126 142.491 32.014 141.987 31.79C141.483 31.5567 141.082 31.244 140.783 30.852C140.494 30.46 140.335 30.026 140.307 29.55H142.281C142.319 29.8487 142.463 30.096 142.715 30.292C142.977 30.488 143.299 30.586 143.681 30.586C144.055 30.586 144.344 30.5113 144.549 30.362C144.764 30.2127 144.871 30.0213 144.871 29.788C144.871 29.536 144.741 29.3493 144.479 29.228C144.227 29.0973 143.821 28.9573 143.261 28.808C142.683 28.668 142.207 28.5233 141.833 28.374C141.469 28.2247 141.152 27.996 140.881 27.688C140.62 27.38 140.489 26.9647 140.489 26.442C140.489 26.0127 140.611 25.6207 140.853 25.266C141.105 24.9113 141.46 24.6313 141.917 24.426C142.384 24.2207 142.93 24.118 143.555 24.118C144.479 24.118 145.217 24.3513 145.767 24.818C146.318 25.2753 146.621 25.896 146.677 26.68H144.801C144.773 26.372 144.643 26.1293 144.409 25.952C144.185 25.7653 143.882 25.672 143.499 25.672C143.145 25.672 142.869 25.7373 142.673 25.868C142.487 25.9987 142.393 26.1807 142.393 26.414C142.393 26.6753 142.524 26.876 142.785 27.016C143.047 27.1467 143.453 27.282 144.003 27.422C144.563 27.562 145.025 27.7067 145.389 27.856C145.753 28.0053 146.066 28.2387 146.327 28.556C146.598 28.864 146.738 29.2747 146.747 29.788C146.747 30.236 146.621 30.6373 146.369 30.992C146.127 31.3467 145.772 31.6267 145.305 31.832C144.848 32.028 144.311 32.126 143.695 32.126ZM151.03 22.06L150.806 28.822H149.154L148.916 22.06H151.03ZM150.022 32.098C149.668 32.098 149.374 31.9907 149.14 31.776C148.916 31.552 148.804 31.2767 148.804 30.95C148.804 30.6233 148.916 30.3527 149.14 30.138C149.374 29.914 149.668 29.802 150.022 29.802C150.368 29.802 150.652 29.914 150.876 30.138C151.1 30.3527 151.212 30.6233 151.212 30.95C151.212 31.2767 151.1 31.552 150.876 31.776C150.652 31.9907 150.368 32.098 150.022 32.098Z" fill="white"/>
</svg>
